<svg width="200" height="200" viewBox="0 0 200 200" fill="none" xmlns="http://www.w3.org/2000/svg">
<path d="M99.068 130.426C93.468 130.426 88.9121 134.982 88.9121 140.582C88.9121 146.182 93.4684 150.738 99.068 150.738C104.668 150.738 109.224 146.182 109.224 140.582C109.224 134.982 104.668 130.426 99.068 130.426ZM99.068 142.926C97.7754 142.926 96.7242 141.875 96.7242 140.582C96.7242 139.289 97.7754 138.238 99.068 138.238C100.361 138.238 101.412 139.289 101.412 140.582C101.412 141.875 100.361 142.926 99.068 142.926Z" fill="#0E8BFF"/>
<path d="M130.422 117.48C129.696 116.754 128.688 116.336 127.661 116.336C126.633 116.336 125.625 116.754 124.899 117.48C124.168 118.207 123.754 119.214 123.754 120.242C123.754 121.27 124.168 122.277 124.899 123.004C125.625 123.73 126.633 124.148 127.661 124.148C128.688 124.148 129.696 123.73 130.422 123.004C131.149 122.277 131.567 121.27 131.567 120.242C131.567 119.214 131.149 118.207 130.422 117.48Z" fill="#0E8BFF"/>
<path d="M180.469 56.2448H176.258L121.157 1.14523C119.631 -0.380159 117.157 -0.380159 115.632 1.14523L101.516 15.2612L45.0596 0.134294C42.9756 -0.424691 40.8333 0.812419 40.2751 2.8964L25.9809 56.2448H16.4064C7.35999 56.2448 0 63.6042 0 72.6507C0 72.8675 0.00820338 73.0827 0.0164068 73.2976C0.00742211 73.405 0 73.5128 0 73.6226V180.469C0 191.238 8.76199 200 19.5315 200H159.375C159.436 200 159.495 199.996 159.556 199.995H180.469C191.238 199.995 200 191.234 200 180.464V75.7753C200 65.0058 191.239 56.2448 180.469 56.2448ZM176.979 64.0569H180.469C186.931 64.0569 192.188 69.314 192.188 75.7753V107.081C192.188 112.186 188.034 116.339 182.93 116.339H178.907V100.775C178.907 90.1413 170.364 81.4718 159.782 81.2538L176.979 64.0569ZM105.446 22.38C105.446 22.3796 105.447 22.3788 105.447 22.3784L118.395 9.43117L169.477 60.5116L148.871 81.1171H141.724L151.072 71.7698C152.597 70.2444 152.597 67.771 151.072 66.2456C147.909 63.0835 147.909 57.939 151.072 54.7769C152.597 53.2515 152.597 50.778 151.072 49.2523L129.654 27.8359C128.128 26.3105 125.655 26.3105 124.129 27.8359C120.967 30.9984 115.822 30.9984 112.66 27.8359C111.134 26.3105 108.66 26.3105 107.135 27.8359L53.8525 81.1175H46.7061L105.446 22.38ZM93.9498 66.4417C85.0323 66.4417 77.561 72.7382 75.7387 81.1175H64.9005L110.24 35.7792C115.245 38.762 121.544 38.762 126.548 35.7792L143.128 52.3577C140.145 57.3616 140.145 63.6616 143.128 68.6655L130.675 81.1175H112.161C110.339 72.7378 102.868 66.4417 93.9498 66.4417ZM104.023 81.1175H83.8784C85.4636 77.103 89.3797 74.2542 93.9506 74.2542C98.5214 74.2542 102.437 77.103 104.023 81.1175ZM42.5775 74.1976L52.9224 35.5909C55.7588 35.6366 58.5803 34.9124 61.1074 33.4527C63.6348 31.9937 65.6685 29.9191 67.0517 27.4335L84.6323 32.1441L59.1194 57.6562L42.5775 74.1976ZM46.8108 8.69132L95.137 21.6398L91.0114 25.7655L65.7645 19.0007C64.7633 18.7323 63.6973 18.873 62.8004 19.3909C61.9031 19.9089 61.2484 20.762 60.9804 21.7628C60.4195 23.855 59.0776 25.6038 57.2018 26.687C55.3256 27.7702 53.1399 28.0577 51.0473 27.4972C48.964 26.9386 46.8214 28.1753 46.2632 30.2593L32.601 81.244H27.3696L46.8108 8.69132ZM16.4064 64.0569H23.8867L19.2811 81.244H16.406C11.6672 81.244 7.81235 77.389 7.81235 72.6507C7.81274 67.912 11.6683 64.0569 16.4064 64.0569ZM192.188 180.464C192.188 186.926 186.931 192.183 180.469 192.183H174.993C177.449 188.917 178.907 184.86 178.907 180.469V164.775H181.251C185.33 164.775 189.107 163.462 192.188 161.241V180.464ZM192.188 146.026C192.188 152.057 187.281 156.963 181.251 156.963H99.2191C90.1727 156.963 82.8127 149.604 82.8127 140.557C82.8127 131.511 90.1723 124.151 99.2191 124.151H111.058C113.215 124.151 114.964 122.402 114.964 120.245C114.964 118.088 113.215 116.339 111.058 116.339H99.2191C85.8648 116.339 75.0004 127.203 75.0004 140.557C75.0004 153.911 85.8648 164.775 99.2191 164.775H171.094V180.469C171.094 186.87 165.934 192.09 159.556 192.187H26.5625V148.199C26.5625 146.042 24.8137 144.293 22.6562 144.293C20.4987 144.293 18.7498 146.042 18.7498 148.199V192.158C12.6512 191.755 7.81235 186.668 7.81235 180.469V86.6179C10.3136 88.1624 13.2571 89.0562 16.406 89.0562H159.375C165.837 89.0562 171.094 94.3132 171.094 100.775V116.339H142.849C140.692 116.339 138.943 118.089 138.943 120.246C138.943 122.403 140.692 124.152 142.849 124.152H182.93C186.341 124.152 189.519 123.142 192.188 121.412V146.026Z" fill="#0E8BFF"/>
<path d="M25.4176 130.202C24.691 129.476 23.6832 129.058 22.6559 129.058C21.6285 129.058 20.6207 129.476 19.8941 130.202C19.1676 130.929 18.7496 131.937 18.7496 132.964C18.7496 133.991 19.1676 134.999 19.8941 135.726C20.6207 136.452 21.6285 136.87 22.6559 136.87C23.6832 136.87 24.691 136.452 25.4176 135.726C26.1441 134.999 26.5621 133.991 26.5621 132.964C26.5617 131.937 26.1437 130.929 25.4176 130.202Z" fill="#0E8BFF"/>
</svg>
