<svg width="36" height="32" viewBox="0 0 36 32" fill="none" xmlns="http://www.w3.org/2000/svg">
<path fill-rule="evenodd" clip-rule="evenodd" d="M0 16C0 15.3939 0.237027 14.8126 0.658937 14.384C1.08085 13.9555 1.65308 13.7147 2.24975 13.7147H28.3153L18.6549 3.90618C18.2325 3.47707 17.9951 2.89506 17.9951 2.28819C17.9951 1.68132 18.2325 1.09931 18.6549 0.670196C19.0774 0.241077 19.6503 0 20.2477 0C20.8452 0 21.4181 0.241077 21.8406 0.670196L35.3391 14.382C35.5486 14.5943 35.7148 14.8465 35.8282 15.1241C35.9416 15.4018 36 15.6994 36 16C36 16.3006 35.9416 16.5982 35.8282 16.8759C35.7148 17.1535 35.5486 17.4057 35.3391 17.618L21.8406 31.3298C21.4181 31.7589 20.8452 32 20.2477 32C19.6503 32 19.0774 31.7589 18.6549 31.3298C18.2325 30.9007 17.9951 30.3187 17.9951 29.7118C17.9951 29.1049 18.2325 28.5229 18.6549 28.0938L28.3153 18.2853H2.24975C1.65308 18.2853 1.08085 18.0445 0.658937 17.616C0.237027 17.1874 0 16.6061 0 16Z" fill="white"/>
</svg>
