<svg width="266" height="266" viewBox="0 0 266 266" fill="none" xmlns="http://www.w3.org/2000/svg">
<path fill-rule="evenodd" clip-rule="evenodd" d="M202.186 84.8174C202.761 85.392 203.217 86.0747 203.529 86.8262C203.84 87.5778 204 88.3835 204 89.1972C204 90.0109 203.84 90.8166 203.529 91.5681C203.217 92.3197 202.761 93.0023 202.186 93.5769L115.763 180.183C115.19 180.759 114.508 181.216 113.758 181.528C113.009 181.839 112.205 182 111.393 182C110.581 182 109.777 181.839 109.027 181.528C108.277 181.216 107.595 180.759 107.022 180.183L63.8103 136.88C62.6512 135.718 62 134.143 62 132.5C62 130.857 62.6512 129.282 63.8103 128.12C64.9695 126.959 66.5416 126.306 68.1809 126.306C69.8202 126.306 71.3923 126.959 72.5514 128.12L111.393 167.056L193.445 84.8174C194.019 84.2413 194.7 83.7842 195.45 83.4724C196.2 83.1605 197.004 83 197.816 83C198.628 83 199.432 83.1605 200.182 83.4724C200.932 83.7842 201.613 84.2413 202.186 84.8174Z" fill="white"/>
<circle cx="133" cy="133" r="127" stroke="white" stroke-width="12"/>
</svg>
