<svg width="100" height="100" viewBox="0 0 100 100" fill="none" xmlns="http://www.w3.org/2000/svg">
<g clip-path="url(#clip0)">
<path d="M62.2502 87.9985L58.3335 82.7768V56.6652C58.3135 44.7193 50.3584 34.2412 38.8569 31.012L44.8336 19.0771C45.2092 18.3252 44.9663 17.4114 44.2669 16.9454L42.6003 15.8321C40.0401 14.1313 36.7663 13.9277 34.0153 15.2987C32.5424 16.0329 30.8099 16.0329 29.337 15.2987C26.5864 13.9283 23.3135 14.1319 20.7537 15.8321L19.087 16.9454C18.3877 17.4114 18.1447 18.3252 18.5204 19.0771L24.4887 31.012C12.9827 34.2368 5.02188 44.7159 5.00042 56.6652V82.7768L1.08377 87.9985C-0.711223 90.3918 -0.226224 93.7868 2.1671 95.5818C3.1048 96.2849 4.24501 96.6651 5.41709 96.6651H57.9169C60.9083 96.6651 63.3335 94.2399 63.3335 91.2484C63.3335 90.0766 62.9533 88.9362 62.2502 87.9985ZM22.1487 18.9021L22.5937 18.6071C24.1558 17.5671 26.1541 17.44 27.8353 18.2737C30.2497 19.4754 33.0876 19.4754 35.502 18.2737C37.183 17.4367 39.1836 17.5637 40.7453 18.6071L41.1903 18.9021L35.4836 30.3037C34.2203 30.1108 32.9449 30.0089 31.667 29.9987C30.3891 30.0089 29.1137 30.1108 27.8503 30.3037L22.1487 18.9021ZM59.1669 92.9151C58.8062 93.1855 58.3677 93.3318 57.9169 93.3318H5.41709C4.26647 93.3318 3.33376 92.3991 3.33376 91.2484C3.33376 90.7976 3.48001 90.3591 3.75043 89.9984L8.00041 84.3318C8.21687 84.0433 8.33374 83.6924 8.33374 83.3318V56.6652C8.33374 43.7786 18.7804 33.332 31.667 33.332C44.5536 33.332 55.0002 43.7786 55.0002 56.6652V83.3318C55.0002 83.6924 55.1171 84.0433 55.3335 84.3318L59.5835 89.9984C60.2737 90.9191 60.0873 92.2249 59.1669 92.9151Z" fill="white"/>
<path d="M98.3334 66.6652C99.2538 66.6652 100 65.9189 100 64.9985V54.9986C100 54.0781 99.2538 53.3319 98.3334 53.3319H93.3334V44.9986C93.3334 44.0782 92.5871 43.3319 91.6667 43.3319H87.7401C94.193 38.1367 95.2125 28.6943 90.0174 22.2414C84.8222 15.7885 75.3797 14.7689 68.9268 19.9641C62.4739 25.1593 61.4544 34.6018 66.6495 41.0547C67.3247 41.8932 68.0883 42.6567 68.9268 43.3319H65.0002C64.0798 43.3319 63.3335 44.0782 63.3335 44.9986V54.9986C63.3335 55.919 64.0798 56.6652 65.0002 56.6652H70.0002V63.3318H65.0002C64.0798 63.3318 63.3335 64.0781 63.3335 64.9985V74.9985C63.3335 75.9189 64.0798 76.6651 65.0002 76.6651H70.0002V94.9984C70.0002 95.9188 70.7464 96.665 71.6668 96.665H98.3334C99.2538 96.665 100 95.9188 100 94.9984V74.9985C100 74.0781 99.2538 73.3318 98.3334 73.3318H93.3334V66.6652H98.3334ZM66.6668 31.6653C66.6668 25.222 71.8901 19.9987 78.3335 19.9987C84.7768 19.9987 90.0001 25.222 90.0001 31.6653C90.0001 38.1086 84.7768 43.3319 78.3335 43.3319C71.8931 43.3246 66.6741 38.1057 66.6668 31.6653ZM66.6668 53.3319V46.6653H90.0001V53.3319H86.6668V49.9986H83.3334V53.3319H80.0001V49.9986H76.6668V53.3319H73.3335V49.9986H70.0002V53.3319H66.6668ZM70.0002 69.9985V73.3318H66.6668V66.6652H90.0001V73.3318H86.6668V69.9985H83.3334V73.3318H80.0001V69.9985H76.6668V73.3318H73.3335V69.9985H70.0002ZM96.6667 93.3317H93.3334V89.9984H90.0001V93.3317H86.6668V89.9984H83.3334V93.3317H80.0001V89.9984H76.6668V93.3317H73.3335V86.6651H96.6667V93.3317ZM96.6667 76.6651V83.3318H93.3334V79.9984H90.0001V83.3318H86.6668V79.9984H83.3334V83.3318H80.0001V79.9984H76.6668V83.3318H73.3335V76.6651H96.6667ZM90.0001 59.9985V63.3318H86.6668V59.9985H83.3334V63.3318H80.0001V59.9985H76.6668V63.3318H73.3335V56.6652H96.6667V63.3318H93.3334V59.9985H90.0001Z" fill="white"/>
<path d="M70.0001 31.6652H73.3334C73.3334 28.9038 75.572 26.6652 78.3334 26.6652V23.3319C73.7332 23.3375 70.0055 27.0652 70.0001 31.6652Z" fill="white"/>
<path d="M83.3334 31.6653C83.3334 34.4267 81.0949 36.6653 78.3334 36.6653V39.9986C82.9334 39.9932 86.6613 36.2653 86.6667 31.6653H83.3334Z" fill="white"/>
<path d="M40.0002 58.3319V58.0119C39.9965 54.5081 37.1573 51.669 33.6536 51.6652H33.3336V48.3319H30.0003V51.6652H29.6803C26.1751 51.6731 23.3401 54.5213 23.3482 58.0262C23.3549 60.9273 25.3278 63.4546 28.1403 64.165L34.3836 65.725C36 66.1212 36.989 67.7527 36.5929 69.3691C36.2615 70.7216 35.0463 71.6708 33.6536 71.6649H29.6803C28.0167 71.6631 26.6688 70.3151 26.6669 68.6516V68.3316H23.3336V68.6516C23.3374 72.1551 26.1767 74.9945 29.6803 74.9983H30.0003V78.3316H33.3336V74.9983H33.6536C37.1588 74.9903 39.9938 72.1422 39.9856 68.637C39.979 65.736 38.0063 63.2087 35.1936 62.4983L28.9503 60.9383C27.3338 60.5421 26.3449 58.9106 26.7409 57.2942C27.0724 55.9417 28.2876 54.9925 29.6803 54.9983H33.6536C35.3171 55.0002 36.665 56.3481 36.6669 58.0117V58.3317H40.0002V58.3319Z" fill="white"/>
<path d="M63.3073 11.3875C63.1889 10.6881 62.6412 10.1404 61.9418 10.022C59.2254 9.56893 57.0967 7.44018 56.6435 4.72374C56.49 3.81624 55.6298 3.20479 54.7223 3.35833C54.0229 3.47666 53.4752 4.02437 53.3569 4.72374C52.9038 7.44018 50.775 9.56893 48.0586 10.022C47.1511 10.1756 46.5396 11.0358 46.6932 11.9433C46.8115 12.6427 47.3592 13.1904 48.0586 13.3087C50.775 13.7618 52.9038 15.8906 53.3569 18.607C53.5104 19.5145 54.3706 20.126 55.2781 19.9724C55.9775 19.8541 56.5252 19.3064 56.6435 18.607C57.0967 15.8906 59.2254 13.7618 61.9418 13.3087C62.8493 13.1554 63.4606 12.2952 63.3073 11.3875ZM55.0002 14.0454C54.3504 13.1206 53.545 12.3152 52.6202 11.6654C53.545 11.0156 54.3504 10.2102 55.0002 9.28539C55.65 10.2102 56.4554 11.0156 57.3802 11.6654C56.4552 12.3154 55.65 13.1206 55.0002 14.0454Z" fill="white"/>
</g>
<defs>
<clipPath id="clip0">
<rect width="100" height="100" fill="white"/>
</clipPath>
</defs>
</svg>
