<svg width="250" height="250" viewBox="0 0 250 250" fill="none" xmlns="http://www.w3.org/2000/svg">
<g clip-path="url(#clip0)">
<path d="M208.333 180.149L197.721 173.792C194.487 171.857 190.786 170.835 187.016 170.833H171.045C167.776 170.827 164.52 171.248 161.359 172.083L113.239 185C107.977 186.452 103.752 190.371 101.908 195.508L59.5826 172.609C56.1504 170.656 52.1322 169.993 48.2544 170.738C46.7916 170.996 45.3736 171.462 44.041 172.121C41.0319 173.562 38.5356 175.889 36.8836 178.788C35.4391 181.313 34.6802 184.172 34.6802 187.079C34.6355 193.016 37.7808 198.517 42.9159 201.491L118.774 246.879C122.07 248.92 125.867 250 129.742 250H188.45C191.073 250.002 193.671 249.506 196.108 248.541L208.333 243.713V250H250V166.667H208.333V180.149ZM193.046 240.792C191.587 241.368 190.031 241.665 188.462 241.667H129.742C127.395 241.665 125.094 241.003 123.104 239.758L47.1416 194.318C44.5598 192.826 42.979 190.063 42.9993 187.083C43.0054 185.622 43.3899 184.186 44.1163 182.916C44.9463 181.478 46.1955 180.324 47.695 179.612C48.3562 179.291 49.056 179.063 49.7783 178.937C50.3052 178.839 50.8403 178.788 51.3754 178.788C52.8077 178.784 54.2155 179.159 55.4586 179.871L101.355 204.671C101.408 204.926 101.408 205.176 101.475 205.43C103.449 212.703 110.046 217.755 117.584 217.763C119.904 217.552 122.201 217.141 124.451 216.539L167.741 204.954L165.592 196.903L122.443 208.437C120.542 208.875 118.091 209.375 117.584 209.418C113.82 209.424 110.52 206.909 109.53 203.28C109.395 202.775 109.316 202.258 109.288 201.737C109.288 201.737 109.255 200.728 109.288 200.374C109.605 196.889 112.046 193.964 115.418 193.026L163.517 180.157C165.973 179.5 168.504 179.167 171.045 179.167H187.016C189.278 179.167 191.498 179.781 193.437 180.943L208.333 189.862V234.749L193.046 240.792ZM216.667 175H241.667V241.667H216.667V175Z" fill="black"/>
<path d="M171.851 33.3332L149.5 10.9842C142.482 3.92646 132.935 -0.0286202 122.984 -0.000137133H70.5994C67.3665 0.00393188 64.1785 0.758733 61.2834 2.19916L51.945 6.87039C50.0732 7.81236 47.994 8.26199 45.9005 8.17857L41.6667 8.03006V-0.000137133H0V91.6665H41.6667V79.1665H48.7508L51.2716 80.8328C58.3252 85.5162 66.5385 88.1611 75 88.4703V141.667H250V33.3332H171.851ZM33.3333 83.3332H8.33333V8.3332H33.3333V83.3332ZM55.8838 73.8992L51.2492 70.8332H41.6667V16.3675L45.5953 16.5078C49.0845 16.6319 52.5472 15.8812 55.6702 14.3248L65.0004 9.65359C66.7379 8.78486 68.6564 8.3332 70.5994 8.3332H122.984C130.723 8.31082 138.151 11.387 143.608 16.8741L160.067 33.3332H125.684L115.57 23.2217L109.68 29.1116L139.113 58.5468C142.383 61.802 142.393 67.0917 139.138 70.3632C135.881 73.6327 130.591 73.6429 127.321 70.3876L102.738 45.8047L99.821 48.3051C91.7664 55.1451 79.9927 55.3201 71.7366 48.7202L69.3217 46.763L64.0706 53.2368L66.512 55.2163C69.0653 57.2569 71.932 58.8723 75 59.9995V80.1329C68.1803 79.8298 61.5702 77.6752 55.8838 73.8992ZM115.155 69.9991L121.442 76.2877C127.968 82.7167 138.446 82.7269 144.983 76.3081C138.867 85.7787 141.28 98.3824 150.462 104.923C159.644 111.464 172.345 109.627 179.297 100.755C186.249 91.8802 184.993 79.1075 176.444 71.7589C167.898 64.4103 155.08 65.0837 147.351 73.2868C150.197 68.817 150.706 63.2465 148.716 58.3332H204.513C206.305 68.817 214.516 77.0283 225 78.8207V96.1791C214.516 97.9715 206.305 106.183 204.513 116.667H120.487C118.695 106.183 110.484 97.9715 100 96.1791V78.8207C105.955 77.8177 111.34 74.6825 115.155 69.9991ZM150 87.4999C150 80.5968 155.597 74.9999 162.5 74.9999C169.403 74.9999 175 80.5968 175 87.4999C175 94.4029 169.403 99.9999 162.5 99.9999C155.597 99.9999 150 94.4029 150 87.4999ZM241.667 133.333H83.3333V61.7451C89.9394 62.2415 96.5251 60.5569 102.083 56.9538L109.192 64.0624C106.065 68.3104 101.109 70.823 95.8333 70.8332H91.6667V104.167H95.8333C105.037 104.167 112.5 111.629 112.5 120.833V125H212.5V120.833C212.5 111.629 219.963 104.167 229.167 104.167H233.333V70.8332H229.167C219.963 70.8332 212.5 63.3706 212.5 54.1665V49.9999H142.35L134.017 41.6665H241.667V133.333Z" fill="black"/>
</g>
<defs>
<clipPath id="clip0">
<rect width="250" height="250" fill="white"/>
</clipPath>
</defs>
</svg>
